<svg xmlns="http://www.w3.org/2000/svg" viewBox="0 0 1200 300">
  <defs>
    <linearGradient id="bg" x1="0%" y1="0%" x2="100%" y2="100%">
      <stop offset="0%" style="stop-color:#1e1b4b;stop-opacity:1" />
      <stop offset="50%" style="stop-color:#312e81;stop-opacity:1" />
      <stop offset="100%" style="stop-color:#3730a3;stop-opacity:1" />
    </linearGradient>
    <linearGradient id="accent" x1="0%" y1="0%" x2="100%" y2="100%">
      <stop offset="0%" style="stop-color:#818cf8;stop-opacity:1" />
      <stop offset="100%" style="stop-color:#a78bfa;stop-opacity:1" />
    </linearGradient>
  </defs>
  <!-- Background -->
  <rect width="1200" height="300" rx="12" fill="url(#bg)"/>
  <!-- Decorative grid dots -->
  <g opacity="0.08" fill="white">
    <circle cx="50" cy="50" r="2"/><circle cx="100" cy="50" r="2"/><circle cx="150" cy="50" r="2"/><circle cx="200" cy="50" r="2"/><circle cx="250" cy="50" r="2"/>
    <circle cx="50" cy="100" r="2"/><circle cx="100" cy="100" r="2"/><circle cx="150" cy="100" r="2"/><circle cx="200" cy="100" r="2"/><circle cx="250" cy="100" r="2"/>
    <circle cx="50" cy="150" r="2"/><circle cx="100" cy="150" r="2"/><circle cx="150" cy="150" r="2"/><circle cx="200" cy="150" r="2"/><circle cx="250" cy="150" r="2"/>
    <circle cx="50" cy="200" r="2"/><circle cx="100" cy="200" r="2"/><circle cx="150" cy="200" r="2"/><circle cx="200" cy="200" r="2"/><circle cx="250" cy="200" r="2"/>
    <circle cx="50" cy="250" r="2"/><circle cx="100" cy="250" r="2"/><circle cx="150" cy="250" r="2"/><circle cx="200" cy="250" r="2"/><circle cx="250" cy="250" r="2"/>
    <circle cx="950" cy="50" r="2"/><circle cx="1000" cy="50" r="2"/><circle cx="1050" cy="50" r="2"/><circle cx="1100" cy="50" r="2"/><circle cx="1150" cy="50" r="2"/>
    <circle cx="950" cy="100" r="2"/><circle cx="1000" cy="100" r="2"/><circle cx="1050" cy="100" r="2"/><circle cx="1100" cy="100" r="2"/><circle cx="1150" cy="100" r="2"/>
    <circle cx="950" cy="150" r="2"/><circle cx="1000" cy="150" r="2"/><circle cx="1050" cy="150" r="2"/><circle cx="1100" cy="150" r="2"/><circle cx="1150" cy="150" r="2"/>
    <circle cx="950" cy="200" r="2"/><circle cx="1000" cy="200" r="2"/><circle cx="1050" cy="200" r="2"/><circle cx="1100" cy="200" r="2"/><circle cx="1150" cy="200" r="2"/>
    <circle cx="950" cy="250" r="2"/><circle cx="1000" cy="250" r="2"/><circle cx="1050" cy="250" r="2"/><circle cx="1100" cy="250" r="2"/><circle cx="1150" cy="250" r="2"/>
  </g>
  <!-- Icon -->
  <rect x="380" y="60" width="80" height="80" rx="12" fill="url(#accent)" opacity="0.2"/>
  <rect x="392" y="72" width="56" height="56" rx="8" fill="url(#accent)" opacity="0.4"/>
  <rect x="404" y="84" width="32" height="32" rx="5" fill="url(#accent)"/>
  <path d="M420 93 L420 109 M413 100 L420 93 L427 100" stroke="white" stroke-width="2.5" fill="none" stroke-linecap="round" stroke-linejoin="round"/>
  <!-- Title -->
  <text x="480" y="112" font-family="-apple-system, BlinkMacSystemFont, 'Segoe UI', Helvetica, Arial, sans-serif" font-size="48" font-weight="700" fill="white">Inside</text>
  <text x="700" y="112" font-family="-apple-system, BlinkMacSystemFont, 'Segoe UI', Helvetica, Arial, sans-serif" font-size="48" font-weight="700" fill="url(#accent)">Out</text>
  <!-- Subtitle -->
  <text x="380" y="170" font-family="-apple-system, BlinkMacSystemFont, 'Segoe UI', Helvetica, Arial, sans-serif" font-size="20" fill="#a5b4fc">AI-Powered Cloud Infrastructure Design</text>
  <!-- Tags -->
  <rect x="380" y="195" width="60" height="26" rx="13" fill="white" opacity="0.1"/>
  <text x="393" y="213" font-family="-apple-system, BlinkMacSystemFont, 'Segoe UI', Helvetica, Arial, sans-serif" font-size="13" fill="#c7d2fe">AWS</text>
  <rect x="452" y="195" width="56" height="26" rx="13" fill="white" opacity="0.1"/>
  <text x="464" y="213" font-family="-apple-system, BlinkMacSystemFont, 'Segoe UI', Helvetica, Arial, sans-serif" font-size="13" fill="#c7d2fe">GCP</text>
  <rect x="520" y="195" width="90" height="26" rx="13" fill="white" opacity="0.1"/>
  <text x="530" y="213" font-family="-apple-system, BlinkMacSystemFont, 'Segoe UI', Helvetica, Arial, sans-serif" font-size="13" fill="#c7d2fe">Terraform</text>
  <rect x="622" y="195" width="112" height="26" rx="13" fill="white" opacity="0.1"/>
  <text x="634" y="213" font-family="-apple-system, BlinkMacSystemFont, 'Segoe UI', Helvetica, Arial, sans-serif" font-size="13" fill="#c7d2fe">Kiro Power</text>
  <!-- Powered by -->
  <text x="380" y="268" font-family="-apple-system, BlinkMacSystemFont, 'Segoe UI', Helvetica, Arial, sans-serif" font-size="14" fill="#6366f1">Powered by Luther Systems</text>
</svg>
